# xmcd
#
# Track frame offsets: 
#        150
#        12320
#        21237
#        27315
#        50565
#        75710
#        98535
#        122245
#        136520
#        158342
#        178832
#        191115
#
# Disc length: 2849 seconds
#
# Revision: 7
# Processed by: cddbd v1.5.2PL0 Copyright (c) Steve Scherf et al.
# Submitted via: ExactAudioCopy v1.0b3
#
DISCID=900b1f0c
DTITLE=BRUCE SPRINGSTEEN - THE ESSENTIAL BRUCE SPRINGSTEEN (LIMITED ED
DTITLE=ITION 3.0)
DYEAR=2003
DGENRE=Rock
TTITLE0=From Small Things (Big Things One Day Come) (1979 Outtake 'The
TTITLE0=River')
TTITLE1=The Big Payback (1982 B-Side 'Open All Night' Single)
TTITLE2=Held Up Without A Gun (Live) (1980 B-Side 'Hungry Heart' Singl
TTITLE2=e)
TTITLE3=Trapped (Live) (1985 'We Are The World' Benefit Album)
TTITLE4=None But The Brave ('Born In The U.S.A.' Outtake)
TTITLE5=Missing (1995 'The Crossing Guard' Soundtrack)
TTITLE6=Lift Me Up (1999 'Limbo' Soundtrack)
TTITLE7=Viva Las Vegas ('Honeymoon In Vegas' Soundtrack 1992)
TTITLE8=County Fair (1983 After Nebraska Sessions)
TTITLE9=Code Of Silence (Live In NYC, During The 1999-2000 Reunion Tou
TTITLE9=r)
TTITLE10=Dead Man Walkin' ('Dead Man Walking Soundtrack, 1995)
TTITLE11=Countin' On A Miracle (Acoustic)
EXTD=YEAR: 2003
EXTT0=
EXTT1=
EXTT2=
EXTT3=
EXTT4=
EXTT5=
EXTT6=
EXTT7=
EXTT8=
EXTT9=
EXTT10=
EXTT11=
PLAYORDER=
